<svg id="Layer_1" data-name="Layer 1" xmlns="http://www.w3.org/2000/svg" viewBox="0 0 458 98"><defs><style>.cls-1{fill:#e0ae00;}.cls-2,.cls-3{fill:#303661;}.cls-3{font-size:51px;font-family:Nexa-Heavy, Nexa;font-weight:800;}.cls-4{letter-spacing:-0.04em;}.cls-5{letter-spacing:0em;}</style></defs><path class="cls-1" d="M112,44.89c2-3.45,4.46-4.48,8-4.39,9.55.25,19.1.09,28.66.09a8.58,8.58,0,0,1-8.13,8.29,225.77,225.77,0,0,1-23.27,0C115.41,48.78,113.73,46.28,112,44.89Z"/><path class="cls-1" d="M6,14.21H40.69c10.54,0,21.08-.07,31.62.06a6.67,6.67,0,0,1,4,1.68c3.87,3.51,7.6,7.18,11.25,10.93,1.4,1.44,2.28,1.22,3.57-.07q5.63-5.62,11.47-11a5.25,5.25,0,0,1,3.15-1.45c22.14-.09,44.28-.07,66.42-.07a6,6,0,0,1,.72.11,9.51,9.51,0,0,1-7.62,8.17,21.43,21.43,0,0,1-4.38.38c-17.16,0-34.32,0-51.48.05a5.36,5.36,0,0,0-3.35,1.4C102.6,27.69,99.3,31.2,95.61,35L99,37.94c3.13-3,6.15-6.11,9.34-9a5.58,5.58,0,0,1,3.36-1.48c15.93-.11,31.87-.1,47.8-.11.4,0,.8.06,1.19.09-.05,3.81-3.48,7.55-7.65,8.31a22.13,22.13,0,0,1-3.9.29c-11.19,0-22.39-.06-33.58.07a8.08,8.08,0,0,0-4.27,1.72c-2.27,1.69-4.3,3.7-6.33,5.49,3.6,3.73,6.55,6.88,9.63,9.89.46.45,1.51.41,2.3.41,6.6,0,13.19,0,19.8,0-.14,4.53-4,8.25-9.21,8.49A133.94,133.94,0,0,1,113.06,62c-1.4-.09-2.92-1.33-4-2.4Q91.1,42.41,73.32,25a7,7,0,0,0-5.4-2.12c-16.92.07-33.83,0-50.74,0C11,22.91,6.83,19.8,6,14.21Z"/><path class="cls-2" d="M29.66,40.63h4.23c8.42,0,16.84.16,25.24-.13a7.65,7.65,0,0,1,7.4,4c-2.06,3.16-4.53,5.08-8.76,4.79-5.85-.4-11.76-.1-17.64-.1a10,10,0,0,1-9.53-5.7A19.88,19.88,0,0,1,29.66,40.63Z"/><path class="cls-2" d="M105.62,74.66,79.25,49.42c-3.4,3.69-6.6,7.4-10.09,10.81a7.49,7.49,0,0,1-4.49,1.83c-4.15.25-8.33.15-12.5.09-5.24-.09-9-3.07-10.47-8.36.82-.06,1.58-.17,2.34-.17,6,0,11.93,0,17.89-.14a5.43,5.43,0,0,0,3.4-1.32c2.65-2.52,5.07-5.28,7.83-8.22-2.32-2.34-4.83-5-7.5-7.46C65.13,36,64,36,63.1,36c-11.52,0-23.05,0-34.57,0-5.62,0-10-3.48-10.72-8.69h2.88c15.2,0,30.4,0,45.61,0a6,6,0,0,1,4.52,1.9q18.75,18.15,37.59,36.22a5.05,5.05,0,0,1,.12,6.59C107.69,72.9,106.73,73.67,105.62,74.66Z"/><path class="cls-2" d="M96.82,84.76c-5-4.92-10-9.73-14.87-14.63a3.85,3.85,0,0,1-1-2.39c-.11-3.25,0-6.5,0-10.36,1.64,1.62,2.92,2.9,4.22,4.16L99.87,75.85c2.41,2.35,2.38,4.65-.15,6.8C98.87,83.38,97.9,84,96.82,84.76Z"/><text class="cls-3" transform="translate(180.12 63.15)">SKY<tspan class="cls-4" x="104.7" y="0">F</tspan><tspan class="cls-5" x="135" y="0">ALKE</tspan></text></svg>