<svg xmlns="http://www.w3.org/2000/svg" width="68" height="54" viewBox="0 0 68 54" fill="none"><g clip-path="url(#clip0_4403_40632)"><path d="M9.68862 28.6443C9.39525 28.0976 9.22798 27.5026 9.01227 26.9272C6.04668 19.004 3.08573 11.0788 0.120801 3.15495C0.0929237 3.07984 0.0949149 2.98057 0 2.93811V2.80749C1.66333 2.71082 3.326 2.61154 4.99 2.51815C7.34761 2.38556 9.70521 2.25689 12.0622 2.12692C14.7171 1.98061 17.3721 1.83692 20.027 1.68866C23.365 1.50252 26.7023 1.30984 30.0402 1.125C32.7065 0.977395 35.3734 0.837623 38.0396 0.691321C40.7942 0.540446 43.548 0.387612 46.3019 0.234778C47.6566 0.159667 49.0119 0.0865155 50.3666 0.00160766C50.5764 -0.0114551 50.6759 0.0538586 50.7615 0.242615C52.9672 5.07844 55.1787 9.91166 57.3903 14.7449C57.4507 14.8775 57.4866 14.9794 57.3605 15.1178C55.5026 17.1628 53.8493 19.3606 52.3386 21.6642C52.3227 21.6884 52.2981 21.708 52.2297 21.7798V21.3905C52.2297 18.5324 52.2258 15.6743 52.2357 12.8155C52.2364 12.5445 52.1926 12.4484 51.8833 12.4511C50.0162 12.468 48.1491 12.4654 46.282 12.453C46.0145 12.4511 45.9342 12.504 45.9348 12.7835C45.9461 16.0982 45.9421 19.4128 45.9421 22.7275V23.0907C45.814 23.092 45.816 22.9816 45.7802 22.9182C45.4344 22.3134 45.0866 21.7086 44.7573 21.0953C44.6518 20.8987 44.5781 20.8693 44.3684 20.9876C42.1575 22.2311 39.9366 23.459 37.7237 24.6993C37.5372 24.8038 37.3693 24.8319 37.1648 24.7797C35.4106 24.3323 34.1129 23.378 33.728 21.5591C33.414 20.0751 33.5972 18.6402 34.7023 17.475C35.6283 16.4992 36.8376 16.1406 38.1664 16.0982C39.7594 16.0466 41.2482 16.4189 42.6619 17.1216C42.7475 17.1641 42.8259 17.2353 42.9692 17.2209V13.6123C42.9692 12.9481 42.9712 12.9429 42.3168 12.7339C41.1632 12.3648 39.9718 12.2329 38.7644 12.2003C36.6398 12.1421 34.551 12.3243 32.5578 13.114C30.3316 13.9964 28.5661 15.3863 27.6428 17.6272C26.3498 20.7668 26.9253 25.683 32.0069 27.7782C33.7087 28.4797 35.4895 28.7873 37.3254 28.8409C37.8106 28.8553 38.2965 28.8788 38.7797 28.8344C39.0399 28.8102 39.2437 28.8944 39.4541 29.029C40.5565 29.7337 41.6165 30.4959 42.6394 31.3078C42.715 31.3679 42.7854 31.4338 42.8949 31.5292C42.0042 31.8061 41.1512 32.0733 40.297 32.3378C31.6684 35.0058 23.0391 37.672 14.4131 40.3485C14.1297 40.4367 14.0288 40.3929 13.9273 40.1186C12.5387 36.3716 11.1382 32.6291 9.74106 28.8853C9.71119 28.805 9.65543 28.7305 9.67999 28.6371C9.82801 28.5052 10.0119 28.5352 10.1851 28.5352C11.8969 28.5326 13.6087 28.5346 15.3211 28.5333C15.799 28.5333 15.8083 28.5241 15.809 28.0656C15.8103 26.7835 15.8076 25.5014 15.8103 24.2193C15.8116 23.6942 15.8634 23.6354 16.401 23.6445C17.763 23.6687 19.1177 23.6099 20.4505 23.3108C21.7216 23.0253 22.9336 22.6015 23.9497 21.7583C24.9666 20.9144 25.5593 19.8511 25.6961 18.5389C25.7963 17.5756 25.6748 16.6533 25.2414 15.7814C24.6925 14.6796 23.7559 13.9905 22.6462 13.515C21.3884 12.9755 20.0596 12.6992 18.6936 12.6248C15.8581 12.4707 13.0193 12.5934 10.1818 12.5595C9.80544 12.5549 9.77889 12.5915 9.77889 13.016C9.77756 16.0472 9.77889 19.0784 9.77823 22.1097C9.77823 24.1089 9.77889 26.1082 9.7769 28.1068C9.7769 28.289 9.80677 28.479 9.68729 28.643L9.68862 28.6443Z" fill="white"></path><path d="M35.543 26.5125C36.3162 26.0808 37.0238 25.685 37.7327 25.2905C39.8639 24.1024 41.9978 22.9196 44.1231 21.7217C44.3714 21.582 44.4577 21.6303 44.5858 21.8609C45.894 24.2128 47.2142 26.5576 48.5324 28.9036C48.5795 28.9879 48.6339 29.0682 48.701 29.176C49.2671 28.0147 49.8393 26.8894 50.4585 25.7888C52.7564 21.7061 55.4067 17.8702 58.6796 14.4752C60.9038 12.1676 63.3703 10.1593 66.2682 8.70472C66.389 8.64397 66.5277 8.49179 66.6505 8.58323C66.7461 8.65377 66.6512 8.82751 66.6425 8.95552C66.5191 10.655 66.1932 12.3342 66.1467 14.0428C66.0989 15.7841 66.3604 17.4626 67.0939 19.0537C67.2226 19.3326 67.1556 19.3848 66.8828 19.4638C65.6914 19.8087 64.6546 20.4533 63.6584 21.1607C61.4202 22.7491 59.4336 24.6151 57.5314 26.5746C55.3935 28.7769 53.3916 31.0923 51.5411 33.5337C50.7818 34.535 50.0484 35.5552 49.4045 36.6329C49.2565 36.8804 49.1868 36.836 49.0255 36.6557C46.6533 34.0046 44.0568 31.5933 41.1337 29.5339C39.4146 28.323 37.6165 27.2505 35.5436 26.5138L35.543 26.5125Z" fill="white"></path><path d="M46.3391 44.649C46.288 44.6549 46.2993 44.6529 46.3099 44.6522C46.5522 44.6366 46.817 44.5543 47.03 44.6242C47.2776 44.7051 47.192 45.0291 47.2783 45.2381C47.6188 46.0656 48.7551 46.4471 49.5363 45.9794C50.1868 45.5901 50.1636 44.8273 49.4839 44.4713C49.0213 44.229 48.5062 44.1448 48.0038 44.0252C47.3812 43.877 46.7705 43.6941 46.2017 43.4008C45.2539 42.9136 44.6851 42.1847 44.7514 41.0861C44.8138 40.0515 45.3641 39.305 46.3212 38.9406C47.9029 38.3377 49.5184 38.3253 51.0848 39.0098C51.9862 39.4036 52.3333 40.2174 52.49 41.124C52.5112 41.2461 52.4495 41.2703 52.3453 41.2762C51.5521 41.3193 50.7596 41.3617 49.9671 41.4127C49.8211 41.4218 49.7866 41.3487 49.7474 41.237C49.4587 40.4095 48.8434 40.0783 48.0011 40.2926C47.6593 40.3794 47.4071 40.6283 47.4044 40.9052C47.4017 41.2461 47.6367 41.4127 47.9281 41.4917C48.5865 41.67 49.2516 41.8229 49.9113 41.9953C50.3481 42.1089 50.7729 42.2572 51.1871 42.4401C53.3296 43.3838 53.1504 45.8769 51.799 47.0264C51.2926 47.4568 50.7025 47.7096 50.0487 47.8186C48.8699 48.0159 47.6978 47.9924 46.5415 47.6717C45.1304 47.2805 44.5377 45.9644 44.4142 44.984C44.3884 44.7796 44.4873 44.7509 44.6592 44.7437C45.1988 44.7208 45.7384 44.6849 46.3398 44.6503L46.3391 44.649Z" fill="white"></path><path d="M57.9623 47.938C57.2746 47.9478 56.6009 47.8694 55.9345 47.6918C54.5321 47.3188 53.8988 46.0334 53.7628 45.0041C53.7382 44.8179 53.8033 44.7579 53.9918 44.7487C54.7079 44.7141 55.4241 44.6795 56.1376 44.6129C56.4058 44.588 56.4888 44.6697 56.5452 44.9146C56.7742 45.9035 57.6131 46.3809 58.5975 46.1053C59.0256 45.9851 59.3216 45.6651 59.3495 45.2921C59.376 44.9283 59.151 44.607 58.7282 44.4235C58.1899 44.1909 57.6078 44.1067 57.0456 43.9552C56.4284 43.7886 55.8224 43.5907 55.2761 43.2517C53.6652 42.2524 53.6964 40.0788 55.3299 39.1082C55.8821 38.7803 56.4868 38.6275 57.1193 38.5818C58.2364 38.5021 59.3488 38.4838 60.3935 38.9867C61.2956 39.4211 61.6726 40.1963 61.8359 41.1153C61.8611 41.2583 61.7894 41.2766 61.6746 41.2832C60.904 41.325 60.1327 41.3674 59.3628 41.4171C59.2054 41.4269 59.1371 41.3772 59.0873 41.2257C58.8225 40.4158 58.17 40.0781 57.331 40.3022C57.0164 40.3858 56.7861 40.5686 56.7576 40.8978C56.7277 41.2374 56.9713 41.4125 57.2633 41.4922C57.9211 41.6724 58.5855 41.8266 59.2459 41.9984C59.694 42.1146 60.1294 42.2655 60.5522 42.4542C62.6708 43.3993 62.4963 45.8728 61.1575 47.0229C60.3836 47.6878 59.4471 47.8844 58.4594 47.936C58.2941 47.9445 58.1282 47.9373 57.9623 47.938Z" fill="white"></path><path d="M43.2321 51.7532C43.3629 51.2522 43.5069 50.7546 43.6191 50.2497C43.6709 50.0159 43.7724 49.9329 44.0147 49.9545C44.2662 49.9773 44.5224 49.9675 44.776 49.9564C44.9426 49.9492 45.0076 49.9943 45.0063 50.172C44.9977 51.0733 44.9983 51.9746 45.0063 52.8759C45.0076 53.0523 44.9439 53.0895 44.7773 53.0934C44.1912 53.1085 44.1919 53.1143 44.1919 52.5468C44.1919 52.019 44.1919 51.4913 44.1919 50.8708C44.02 51.2575 43.9662 51.5847 43.8813 51.9021C43.8169 52.1431 43.7545 52.3848 43.6934 52.6271C43.5713 53.1111 43.4737 53.1659 42.966 53.0934C42.8206 53.0725 42.8253 52.9831 42.802 52.8949C42.656 52.3502 42.512 51.8048 42.3653 51.2601C42.3387 51.1608 42.3434 51.0485 42.2259 50.9479C42.2259 51.5912 42.2173 52.2065 42.2305 52.8204C42.2352 53.0288 42.1821 53.098 41.9591 53.0947C41.4234 53.0863 41.4234 53.0987 41.4234 52.5651C41.4234 51.7832 41.4321 51.0014 41.4181 50.2196C41.4141 50.0002 41.4858 49.9414 41.6969 49.9545C42.0254 49.9754 42.4483 49.8539 42.6587 50.0132C42.8691 50.172 42.8704 50.6017 42.958 50.9133C43.0357 51.1902 43.1067 51.4691 43.1804 51.7467C43.1983 51.748 43.2155 51.7499 43.2335 51.7512L43.2321 51.7532Z" fill="white"></path><path d="M57.8023 51.3665C57.8023 51.9374 57.795 52.4037 57.8063 52.87C57.8103 53.0425 57.7552 53.0862 57.5826 53.0915C56.879 53.1111 56.879 53.1169 56.879 52.437C56.879 51.6879 56.8843 50.9387 56.8751 50.1902C56.8731 50.0093 56.9255 49.9682 57.1107 49.9486C57.5959 49.8963 57.9337 50.0217 58.1707 50.4828C58.3758 50.8819 58.6791 51.232 58.9957 51.6839C58.9957 51.1177 59.0023 50.6461 58.9924 50.1752C58.9891 50.0087 59.0342 49.9564 59.2114 49.9518C59.9236 49.9342 59.9236 49.927 59.9236 50.6331C59.9236 51.3711 59.9183 52.1098 59.9276 52.8478C59.9296 53.0242 59.8845 53.0712 59.6953 53.096C59.1875 53.1646 58.851 53.0066 58.6074 52.5474C58.4017 52.1588 58.1116 51.8139 57.8023 51.3672V51.3665Z" fill="white"></path><path d="M35.1351 51.5008C35.1331 51.685 35.149 51.8444 35.1895 52.005C35.2532 52.2598 35.4198 52.3969 35.6734 52.427C35.9355 52.4577 36.1844 52.3858 36.2714 52.1265C36.363 51.8535 36.5004 51.8672 36.7281 51.9397C37.2876 52.118 37.34 52.2552 36.9378 52.7058C36.4665 53.2342 35.8479 53.2088 35.226 53.0807C34.6552 52.9638 34.3545 52.5615 34.2118 52.0357C34.1162 51.6843 34.1282 51.3245 34.2118 50.9711C34.3963 50.1913 35.163 49.7595 36.067 49.9019C36.5621 49.9797 36.9258 50.2076 37.1376 50.6654C37.2066 50.8137 37.1854 50.8797 37.0194 50.9065C36.8893 50.9274 36.7626 50.9639 36.6345 50.9953C36.4738 51.0351 36.3404 51.0789 36.2455 50.8575C36.1586 50.655 35.9428 50.5851 35.7152 50.6054C35.4709 50.6269 35.3043 50.7621 35.216 50.9783C35.1457 51.1501 35.1198 51.3343 35.1344 51.5008H35.1351Z" fill="white"></path><path d="M58.0312 26.7935C59.1271 25.6747 60.2369 24.6088 61.4263 23.5781C61.7097 24.1973 61.9792 24.7877 62.2506 25.3769C62.2931 25.4696 62.3037 25.5271 62.1756 25.5663C60.8296 25.9745 59.4855 26.3892 58.1408 26.8001C58.1116 26.8092 58.0757 26.7968 58.0312 26.7935Z" fill="white"></path><path d="M61.8529 49.9608C62.2724 49.9608 62.6919 49.9687 63.1107 49.9576C63.2913 49.953 63.3596 49.9968 63.361 50.1888C63.3643 50.678 63.3749 50.678 62.8798 50.678C62.5222 50.678 62.3434 50.8537 62.3434 51.2051C62.3434 51.7589 62.3388 52.3121 62.3461 52.866C62.3481 53.0247 62.3149 53.09 62.1311 53.0966C61.3664 53.124 61.3664 53.1312 61.3664 52.3677C61.3664 51.8902 61.3578 51.4121 61.3704 50.9353C61.3757 50.7433 61.3319 50.6486 61.1169 50.676C60.9974 50.6911 60.8719 50.663 60.7538 50.6819C60.4359 50.7322 60.3516 50.6166 60.3516 50.3005C60.3516 49.9974 60.4511 49.9393 60.7266 49.9556C61.1003 49.9778 61.4766 49.9615 61.8516 49.9615L61.8529 49.9608Z" fill="white"></path><path d="M48.7895 51.5269C48.7895 51.071 48.7955 50.6158 48.7862 50.1599C48.7829 50.0038 48.834 49.9633 48.9913 49.9567C49.7772 49.9221 49.7772 49.9169 49.7772 50.6974C49.7772 51.1533 49.7885 51.6092 49.7719 52.0644C49.7646 52.2721 49.8349 52.3224 50.034 52.3133C50.3752 52.2976 50.7184 52.3217 51.0595 52.3041C51.2699 52.293 51.3157 52.3649 51.3144 52.5608C51.3104 53.0911 51.3204 53.0911 50.7801 53.0911C50.1953 53.0911 49.6106 53.084 49.0265 53.0951C48.84 53.0983 48.7796 53.0487 48.7856 52.8606C48.7988 52.4165 48.7902 51.971 48.7902 51.5262L48.7895 51.5269Z" fill="white"></path><path d="M52.724 51.5226C52.724 51.9674 52.7154 52.4128 52.728 52.8576C52.7333 53.0451 52.6683 53.0901 52.4851 53.0928C51.7477 53.1045 51.7477 53.1111 51.7477 52.403C51.7477 51.6761 51.7563 50.9485 51.7423 50.2216C51.7384 50.0041 51.8087 49.9525 52.0205 49.9531C52.724 49.9557 52.724 49.9473 52.724 50.6435C52.724 50.9368 52.724 51.2294 52.724 51.5226Z" fill="white"></path><path d="M43.3483 41.9828C43.0039 39.8556 41.5954 38.6747 39.4104 38.6734C38.0417 38.6727 36.6724 38.6858 35.3045 38.6643C34.9699 38.659 34.9162 38.7603 34.9202 39.0601C34.9374 40.4499 34.9275 41.8398 34.9275 43.2297C34.9275 44.6196 34.9401 46.0316 34.9182 47.432C34.9129 47.7605 35.0137 47.8154 35.3204 47.8108C36.5563 47.7925 37.7928 47.801 39.0294 47.8043C39.3719 47.8049 39.711 47.7853 40.0515 47.7416C41.7952 47.5188 42.9488 46.4934 43.3105 44.7966C43.509 43.8645 43.501 42.9214 43.349 41.9822L43.3483 41.9828ZM40.4743 44.3786C40.3097 45.2805 39.8816 45.6293 38.9086 45.6985C38.6119 45.7194 38.3125 45.6998 38.0158 45.7201C37.8154 45.7338 37.7835 45.6502 37.7855 45.4771C37.7935 44.728 37.7888 43.9788 37.7888 43.2297C37.7888 42.5347 37.8134 41.8392 37.7789 41.1455C37.7616 40.7967 37.8831 40.7236 38.1984 40.7543C38.4937 40.783 38.7924 40.7647 39.0878 40.8137C39.8491 40.9391 40.2686 41.3095 40.4385 42.0495C40.6157 42.8215 40.6157 43.6033 40.475 44.3772L40.4743 44.3786Z" fill="white"></path><path d="M39.2512 49.8906C38.2005 49.8887 37.5865 50.4948 37.5899 51.53C37.5932 52.562 38.2038 53.1524 39.2671 53.1517C40.2973 53.1504 40.8867 52.5567 40.892 51.515C40.8973 50.4974 40.2866 49.8932 39.2519 49.8913L39.2512 49.8906ZM39.8048 52.0891C39.7065 52.3366 39.4941 52.4398 39.226 52.4346C38.9565 52.4294 38.7647 52.3072 38.6598 52.0649C38.5855 51.8931 38.5675 51.7103 38.5788 51.5424C38.5768 51.3615 38.5835 51.2015 38.6366 51.0441C38.7308 50.7639 38.9226 50.6169 39.2207 50.6091C39.5174 50.6012 39.7357 50.7351 39.8313 51.0101C39.9561 51.3687 39.9441 51.737 39.8048 52.0897V52.0891Z" fill="white"></path><path d="M56.2986 52.3859C56.0245 51.6433 55.7511 50.9007 55.4769 50.1587C55.4351 50.0457 55.4013 49.9262 55.234 49.9595C54.9048 50.0248 54.4096 49.7649 54.261 50.0875C53.8196 51.0502 53.493 52.0633 53.1094 53.09C53.3762 53.09 53.6065 53.0756 53.8335 53.0939C54.0506 53.1115 54.1534 53.0391 54.1913 52.8248C54.2105 52.7184 54.2012 52.5538 54.4103 52.5649C54.6851 52.5792 54.9612 52.5708 55.2367 52.5675C55.3422 52.5662 55.4126 52.6047 55.4192 52.7092C55.4418 53.073 55.6674 53.1305 55.9794 53.0939C56.1526 53.0737 56.3312 53.09 56.5602 53.09C56.4633 52.83 56.3803 52.6086 56.298 52.3866L56.2986 52.3859ZM54.6692 51.2481C54.711 51.1097 54.7521 50.9712 54.8597 50.8347C54.9619 51.1345 55.0641 51.4349 55.1763 51.7628C54.7227 51.8033 54.5537 51.6315 54.6692 51.2475V51.2481Z" fill="white"></path><path d="M48.2918 50.8709C48.2586 50.2791 47.8975 49.9689 47.2331 49.965C46.7592 49.9623 46.2853 49.9702 45.8114 49.961C45.6534 49.9584 45.6023 50.0061 45.6056 50.1622C45.6149 50.6174 45.6089 51.0727 45.6089 51.5286C45.6089 51.8427 45.6089 52.1575 45.6089 52.4717C45.6089 53.0948 45.6089 53.0798 46.2402 53.1013C46.5269 53.1111 46.6158 53.0438 46.6045 52.7493C46.58 52.0844 46.5979 52.0837 47.2504 52.0504C47.2723 52.0491 47.2948 52.0504 47.3167 52.0485C47.9977 51.9779 48.3323 51.5736 48.2924 50.8702L48.2918 50.8709ZM46.8395 51.3385C46.5455 51.3725 46.5853 51.1902 46.6006 51.0341C46.5873 50.8343 46.5435 50.6423 46.8548 50.6769C47.0838 50.7023 47.3267 50.7076 47.3313 50.9976C47.3367 51.3111 47.0765 51.3111 46.8395 51.3385Z" fill="white"></path><path d="M15.876 18.1102C15.876 17.4701 15.8747 16.8301 15.8774 16.1907C15.8774 16.0692 15.8349 15.9242 16.0553 15.9229C16.8166 15.9189 17.5779 15.9163 18.3173 16.1299C19.2678 16.4049 19.7954 17.0404 19.8226 17.9195C19.8558 18.9828 19.4158 19.6575 18.4427 20.0076C17.6615 20.2884 16.8444 20.2891 16.0274 20.2845C15.821 20.2832 15.8787 20.1349 15.878 20.0298C15.8741 19.3897 15.876 18.7496 15.876 18.1102Z" fill="white"></path></g><defs><clipPath id="clip0_4403_40632"><rect width="67.1546" height="53.1641" fill="white"></rect></clipPath></defs></svg>